<svg width="16" height="19" viewBox="0 0 16 19" fill="none" xmlns="http://www.w3.org/2000/svg">
<path d="M15 18C15 14.7105 11.8626 12.05 8 12.05C4.13737 12.05 1 14.7105 1 18M8 9.5C9.08063 9.5 10.117 9.05223 10.8811 8.2552C11.6452 7.45817 12.0745 6.37717 12.0745 5.25C12.0745 4.12283 11.6452 3.04183 10.8811 2.2448C10.117 1.44777 9.08063 1 8 1C6.91937 1 5.88301 1.44777 5.11889 2.2448C4.35477 3.04183 3.92549 4.12283 3.92549 5.25C3.92549 6.37717 4.35477 7.45817 5.11889 8.2552C5.88301 9.05223 6.91937 9.5 8 9.5Z" stroke="#878B8F" stroke-width="1.5" stroke-linecap="round" stroke-linejoin="round"/>
</svg>
